<svg xmlns="http://www.w3.org/2000/svg" viewBox="0 0 1280 420" width="1280" height="420" role="img" aria-label="Quantum Link Research: entangled photons from a relay to Earth and Mars, classical bits at the speed of light">
<defs>
  <linearGradient id="bg" x1="0" y1="0" x2="0" y2="1"><stop offset="0" stop-color="#060a16"/><stop offset="1" stop-color="#0b1224"/></linearGradient>
  <radialGradient id="aur1" cx="0.2" cy="0.1" r="0.6"><stop offset="0" stop-color="#5ea8ff" stop-opacity=".35"/><stop offset="1" stop-color="#5ea8ff" stop-opacity="0"/></radialGradient>
  <radialGradient id="aur2" cx="0.85" cy="0.2" r="0.5"><stop offset="0" stop-color="#a78bfa" stop-opacity=".28"/><stop offset="1" stop-color="#a78bfa" stop-opacity="0"/></radialGradient>
  <radialGradient id="earth" cx=".35" cy=".35" r=".7"><stop offset="0" stop-color="#9cc7ff"/><stop offset="1" stop-color="#1b4fb0"/></radialGradient>
  <radialGradient id="mars" cx=".35" cy=".35" r=".7"><stop offset="0" stop-color="#ffb08a"/><stop offset="1" stop-color="#b8402a"/></radialGradient>
  <linearGradient id="title" x1="0" x2="1"><stop offset="0" stop-color="#5ea8ff"/><stop offset=".4" stop-color="#5ef2e0"/><stop offset=".75" stop-color="#a78bfa"/><stop offset="1" stop-color="#ff8a4c"/>
    <animate attributeName="x1" values="0;-1;0" dur="10s" repeatCount="indefinite"/><animate attributeName="x2" values="1;0;1" dur="10s" repeatCount="indefinite"/></linearGradient>
  <filter id="glow" x="-50%" y="-50%" width="200%" height="200%"><feGaussianBlur stdDeviation="3" result="b"/><feMerge><feMergeNode in="b"/><feMergeNode in="SourceGraphic"/></feMerge></filter>
</defs>
<rect width="1280" height="420" fill="url(#bg)"/><rect width="1280" height="420" fill="url(#aur1)"/><rect width="1280" height="420" fill="url(#aur2)"/>
<circle cx="415" cy="63" r="0.6" fill="#dfe8ff" opacity="0.25"></circle><circle cx="468" cy="24" r="0.8" fill="#dfe8ff" opacity="0.23"></circle><circle cx="89" cy="38" r="1.4" fill="#dfe8ff" opacity="0.24"></circle><circle cx="1213" cy="265" r="0.6" fill="#dfe8ff" opacity="0.60"></circle><circle cx="1250" cy="20" r="0.8" fill="#dfe8ff" opacity="0.40"><animate attributeName="opacity" values="0.2;0.9;0.2" dur="2.5s" repeatCount="indefinite"/></circle><circle cx="395" cy="343" r="0.8" fill="#dfe8ff" opacity="0.27"></circle><circle cx="240" cy="41" r="0.6" fill="#dfe8ff" opacity="0.60"></circle><circle cx="635" cy="223" r="1.1" fill="#dfe8ff" opacity="0.53"></circle><circle cx="463" cy="104" r="0.8" fill="#dfe8ff" opacity="0.69"><animate attributeName="opacity" values="0.2;0.9;0.2" dur="4.3s" repeatCount="indefinite"/></circle><circle cx="672" cy="368" r="1.4" fill="#dfe8ff" opacity="0.40"></circle><circle cx="151" cy="176" r="1.1" fill="#dfe8ff" opacity="0.31"></circle><circle cx="50" cy="281" r="1.1" fill="#dfe8ff" opacity="0.44"></circle><circle cx="636" cy="335" r="0.6" fill="#dfe8ff" opacity="0.79"></circle><circle cx="607" cy="279" r="0.6" fill="#dfe8ff" opacity="0.71"></circle><circle cx="740" cy="286" r="1.4" fill="#dfe8ff" opacity="0.40"></circle><circle cx="856" cy="9" r="1.4" fill="#dfe8ff" opacity="0.45"></circle><circle cx="632" cy="92" r="1.1" fill="#dfe8ff" opacity="0.29"><animate attributeName="opacity" values="0.2;0.9;0.2" dur="3.6s" repeatCount="indefinite"/></circle><circle cx="1115" cy="34" r="1.4" fill="#dfe8ff" opacity="0.48"><animate attributeName="opacity" values="0.2;0.9;0.2" dur="2.5s" repeatCount="indefinite"/></circle><circle cx="551" cy="231" r="1.4" fill="#dfe8ff" opacity="0.89"></circle><circle cx="487" cy="97" r="0.6" fill="#dfe8ff" opacity="0.32"><animate attributeName="opacity" values="0.2;0.9;0.2" dur="2.9s" repeatCount="indefinite"/></circle><circle cx="621" cy="247" r="1.1" fill="#dfe8ff" opacity="0.40"><animate attributeName="opacity" values="0.2;0.9;0.2" dur="4.1s" repeatCount="indefinite"/></circle><circle cx="781" cy="134" r="0.8" fill="#dfe8ff" opacity="0.68"></circle><circle cx="791" cy="284" r="0.6" fill="#dfe8ff" opacity="0.52"></circle><circle cx="1218" cy="286" r="1.4" fill="#dfe8ff" opacity="0.48"></circle><circle cx="616" cy="168" r="0.8" fill="#dfe8ff" opacity="0.25"><animate attributeName="opacity" values="0.2;0.9;0.2" dur="2.6s" repeatCount="indefinite"/></circle><circle cx="435" cy="22" r="0.6" fill="#dfe8ff" opacity="0.60"></circle><circle cx="1215" cy="258" r="0.6" fill="#dfe8ff" opacity="0.81"></circle><circle cx="190" cy="106" r="1.1" fill="#dfe8ff" opacity="0.62"></circle><circle cx="148" cy="205" r="1.4" fill="#dfe8ff" opacity="0.54"></circle><circle cx="184" cy="315" r="1.1" fill="#dfe8ff" opacity="0.54"></circle><circle cx="661" cy="86" r="1.1" fill="#dfe8ff" opacity="0.30"></circle><circle cx="35" cy="222" r="0.6" fill="#dfe8ff" opacity="0.69"><animate attributeName="opacity" values="0.2;0.9;0.2" dur="3.5s" repeatCount="indefinite"/></circle><circle cx="214" cy="324" r="1.1" fill="#dfe8ff" opacity="0.65"></circle><circle cx="1009" cy="318" r="0.8" fill="#dfe8ff" opacity="0.76"></circle><circle cx="947" cy="95" r="1.4" fill="#dfe8ff" opacity="0.45"><animate attributeName="opacity" values="0.2;0.9;0.2" dur="2.1s" repeatCount="indefinite"/></circle><circle cx="358" cy="109" r="1.1" fill="#dfe8ff" opacity="0.51"></circle><circle cx="1265" cy="401" r="1.1" fill="#dfe8ff" opacity="0.26"><animate attributeName="opacity" values="0.2;0.9;0.2" dur="3.9s" repeatCount="indefinite"/></circle><circle cx="432" cy="203" r="0.6" fill="#dfe8ff" opacity="0.54"></circle><circle cx="1024" cy="36" r="0.6" fill="#dfe8ff" opacity="0.84"></circle><circle cx="960" cy="201" r="0.8" fill="#dfe8ff" opacity="0.50"></circle><circle cx="111" cy="397" r="1.4" fill="#dfe8ff" opacity="0.52"></circle><circle cx="109" cy="67" r="0.8" fill="#dfe8ff" opacity="0.22"></circle><circle cx="596" cy="275" r="1.4" fill="#dfe8ff" opacity="0.66"></circle><circle cx="702" cy="55" r="0.6" fill="#dfe8ff" opacity="0.76"></circle><circle cx="132" cy="315" r="0.8" fill="#dfe8ff" opacity="0.50"></circle><circle cx="1057" cy="89" r="1.1" fill="#dfe8ff" opacity="0.35"></circle><circle cx="978" cy="137" r="1.4" fill="#dfe8ff" opacity="0.78"><animate attributeName="opacity" values="0.2;0.9;0.2" dur="5.0s" repeatCount="indefinite"/></circle><circle cx="1149" cy="278" r="1.4" fill="#dfe8ff" opacity="0.78"></circle><circle cx="167" cy="64" r="0.6" fill="#dfe8ff" opacity="0.81"></circle><circle cx="779" cy="326" r="0.8" fill="#dfe8ff" opacity="0.32"></circle><circle cx="928" cy="234" r="1.1" fill="#dfe8ff" opacity="0.68"></circle><circle cx="618" cy="326" r="0.6" fill="#dfe8ff" opacity="0.37"><animate attributeName="opacity" values="0.2;0.9;0.2" dur="5.1s" repeatCount="indefinite"/></circle><circle cx="650" cy="236" r="0.6" fill="#dfe8ff" opacity="0.51"></circle><circle cx="647" cy="215" r="1.1" fill="#dfe8ff" opacity="0.52"></circle><circle cx="612" cy="395" r="1.1" fill="#dfe8ff" opacity="0.85"></circle><circle cx="259" cy="188" r="1.4" fill="#dfe8ff" opacity="0.29"></circle><circle cx="93" cy="101" r="0.6" fill="#dfe8ff" opacity="0.35"></circle><circle cx="157" cy="326" r="1.1" fill="#dfe8ff" opacity="0.30"></circle><circle cx="1238" cy="92" r="0.6" fill="#dfe8ff" opacity="0.48"></circle><circle cx="1267" cy="350" r="0.8" fill="#dfe8ff" opacity="0.69"></circle><circle cx="517" cy="177" r="1.1" fill="#dfe8ff" opacity="0.42"></circle><circle cx="25" cy="233" r="1.4" fill="#dfe8ff" opacity="0.69"></circle><circle cx="662" cy="124" r="0.6" fill="#dfe8ff" opacity="0.28"></circle><circle cx="293" cy="368" r="0.6" fill="#dfe8ff" opacity="0.39"><animate attributeName="opacity" values="0.2;0.9;0.2" dur="5.1s" repeatCount="indefinite"/></circle><circle cx="346" cy="54" r="1.4" fill="#dfe8ff" opacity="0.79"></circle><circle cx="1211" cy="170" r="1.4" fill="#dfe8ff" opacity="0.69"><animate attributeName="opacity" values="0.2;0.9;0.2" dur="2.2s" repeatCount="indefinite"/></circle><circle cx="881" cy="179" r="0.6" fill="#dfe8ff" opacity="0.39"><animate attributeName="opacity" values="0.2;0.9;0.2" dur="2.4s" repeatCount="indefinite"/></circle><circle cx="334" cy="255" r="0.8" fill="#dfe8ff" opacity="0.25"></circle><circle cx="581" cy="142" r="1.4" fill="#dfe8ff" opacity="0.85"><animate attributeName="opacity" values="0.2;0.9;0.2" dur="2.5s" repeatCount="indefinite"/></circle><circle cx="674" cy="100" r="0.6" fill="#dfe8ff" opacity="0.88"><animate attributeName="opacity" values="0.2;0.9;0.2" dur="2.7s" repeatCount="indefinite"/></circle><circle cx="1193" cy="264" r="0.8" fill="#dfe8ff" opacity="0.40"></circle><circle cx="228" cy="146" r="0.6" fill="#dfe8ff" opacity="0.90"><animate attributeName="opacity" values="0.2;0.9;0.2" dur="2.1s" repeatCount="indefinite"/></circle><circle cx="647" cy="411" r="1.4" fill="#dfe8ff" opacity="0.37"></circle><circle cx="843" cy="273" r="1.4" fill="#dfe8ff" opacity="0.58"></circle><circle cx="1242" cy="129" r="0.8" fill="#dfe8ff" opacity="0.89"></circle><circle cx="1065" cy="297" r="0.8" fill="#dfe8ff" opacity="0.48"></circle><circle cx="70" cy="55" r="0.6" fill="#dfe8ff" opacity="0.64"></circle><circle cx="551" cy="23" r="1.4" fill="#dfe8ff" opacity="0.81"></circle><circle cx="361" cy="102" r="1.1" fill="#dfe8ff" opacity="0.23"><animate attributeName="opacity" values="0.2;0.9;0.2" dur="3.1s" repeatCount="indefinite"/></circle><circle cx="5" cy="153" r="1.1" fill="#dfe8ff" opacity="0.88"></circle><circle cx="313" cy="406" r="1.1" fill="#dfe8ff" opacity="0.35"><animate attributeName="opacity" values="0.2;0.9;0.2" dur="3.3s" repeatCount="indefinite"/></circle><circle cx="107" cy="117" r="0.8" fill="#dfe8ff" opacity="0.37"></circle><circle cx="116" cy="343" r="0.8" fill="#dfe8ff" opacity="0.48"><animate attributeName="opacity" values="0.2;0.9;0.2" dur="2.1s" repeatCount="indefinite"/></circle><circle cx="389" cy="98" r="0.8" fill="#dfe8ff" opacity="0.66"></circle><circle cx="1125" cy="164" r="1.1" fill="#dfe8ff" opacity="0.70"></circle><circle cx="364" cy="260" r="0.8" fill="#dfe8ff" opacity="0.23"></circle><circle cx="1142" cy="263" r="0.8" fill="#dfe8ff" opacity="0.84"></circle><circle cx="728" cy="341" r="0.6" fill="#dfe8ff" opacity="0.78"></circle><circle cx="1143" cy="287" r="0.8" fill="#dfe8ff" opacity="0.26"><animate attributeName="opacity" values="0.2;0.9;0.2" dur="4.5s" repeatCount="indefinite"/></circle><circle cx="1228" cy="158" r="1.4" fill="#dfe8ff" opacity="0.59"></circle><circle cx="802" cy="286" r="1.4" fill="#dfe8ff" opacity="0.38"></circle><circle cx="90" cy="392" r="0.6" fill="#dfe8ff" opacity="0.66"><animate attributeName="opacity" values="0.2;0.9;0.2" dur="4.9s" repeatCount="indefinite"/></circle><circle cx="323" cy="31" r="1.1" fill="#dfe8ff" opacity="0.36"></circle><circle cx="295" cy="273" r="1.4" fill="#dfe8ff" opacity="0.55"></circle><circle cx="613" cy="287" r="0.6" fill="#dfe8ff" opacity="0.63"></circle><circle cx="99" cy="62" r="1.1" fill="#dfe8ff" opacity="0.66"></circle><circle cx="795" cy="56" r="1.4" fill="#dfe8ff" opacity="0.24"><animate attributeName="opacity" values="0.2;0.9;0.2" dur="4.7s" repeatCount="indefinite"/></circle><circle cx="886" cy="284" r="1.1" fill="#dfe8ff" opacity="0.70"><animate attributeName="opacity" values="0.2;0.9;0.2" dur="3.9s" repeatCount="indefinite"/></circle><circle cx="982" cy="417" r="0.8" fill="#dfe8ff" opacity="0.42"><animate attributeName="opacity" values="0.2;0.9;0.2" dur="3.9s" repeatCount="indefinite"/></circle><circle cx="371" cy="32" r="1.4" fill="#dfe8ff" opacity="0.90"></circle><circle cx="1173" cy="391" r="0.6" fill="#dfe8ff" opacity="0.61"><animate attributeName="opacity" values="0.2;0.9;0.2" dur="4.1s" repeatCount="indefinite"/></circle><circle cx="1220" cy="56" r="1.1" fill="#dfe8ff" opacity="0.82"></circle><circle cx="296" cy="377" r="1.4" fill="#dfe8ff" opacity="0.48"><animate attributeName="opacity" values="0.2;0.9;0.2" dur="5.8s" repeatCount="indefinite"/></circle><circle cx="872" cy="170" r="0.8" fill="#dfe8ff" opacity="0.49"></circle><circle cx="155" cy="139" r="1.1" fill="#dfe8ff" opacity="0.73"></circle><circle cx="154" cy="389" r="0.6" fill="#dfe8ff" opacity="0.83"><animate attributeName="opacity" values="0.2;0.9;0.2" dur="3.5s" repeatCount="indefinite"/></circle><circle cx="503" cy="419" r="0.6" fill="#dfe8ff" opacity="0.45"></circle><circle cx="352" cy="20" r="0.6" fill="#dfe8ff" opacity="0.24"></circle><circle cx="813" cy="63" r="1.1" fill="#dfe8ff" opacity="0.51"></circle><circle cx="990" cy="330" r="1.4" fill="#dfe8ff" opacity="0.82"></circle><circle cx="808" cy="384" r="0.8" fill="#dfe8ff" opacity="0.70"><animate attributeName="opacity" values="0.2;0.9;0.2" dur="4.9s" repeatCount="indefinite"/></circle><circle cx="577" cy="316" r="1.1" fill="#dfe8ff" opacity="0.54"></circle><circle cx="704" cy="72" r="1.4" fill="#dfe8ff" opacity="0.44"><animate attributeName="opacity" values="0.2;0.9;0.2" dur="5.0s" repeatCount="indefinite"/></circle><circle cx="1250" cy="109" r="0.8" fill="#dfe8ff" opacity="0.41"></circle><circle cx="505" cy="70" r="0.8" fill="#dfe8ff" opacity="0.25"></circle><circle cx="1039" cy="231" r="1.4" fill="#dfe8ff" opacity="0.83"></circle><circle cx="576" cy="59" r="0.8" fill="#dfe8ff" opacity="0.37"><animate attributeName="opacity" values="0.2;0.9;0.2" dur="4.2s" repeatCount="indefinite"/></circle><circle cx="409" cy="155" r="0.8" fill="#dfe8ff" opacity="0.82"></circle><circle cx="528" cy="174" r="0.8" fill="#dfe8ff" opacity="0.46"></circle><circle cx="79" cy="117" r="1.1" fill="#dfe8ff" opacity="0.29"></circle><circle cx="806" cy="362" r="0.8" fill="#dfe8ff" opacity="0.26"></circle><circle cx="492" cy="271" r="1.4" fill="#dfe8ff" opacity="0.87"></circle><circle cx="1117" cy="9" r="0.6" fill="#dfe8ff" opacity="0.50"></circle><circle cx="1029" cy="407" r="1.4" fill="#dfe8ff" opacity="0.20"></circle><circle cx="1186" cy="347" r="1.4" fill="#dfe8ff" opacity="0.88"><animate attributeName="opacity" values="0.2;0.9;0.2" dur="2.4s" repeatCount="indefinite"/></circle><circle cx="198" cy="219" r="0.6" fill="#dfe8ff" opacity="0.86"></circle><circle cx="829" cy="321" r="1.4" fill="#dfe8ff" opacity="0.26"></circle><circle cx="2" cy="53" r="0.6" fill="#dfe8ff" opacity="0.65"></circle><circle cx="164" cy="106" r="1.4" fill="#dfe8ff" opacity="0.69"><animate attributeName="opacity" values="0.2;0.9;0.2" dur="2.3s" repeatCount="indefinite"/></circle><circle cx="671" cy="245" r="1.4" fill="#dfe8ff" opacity="0.38"></circle><circle cx="1" cy="226" r="1.4" fill="#dfe8ff" opacity="0.40"></circle><circle cx="1074" cy="102" r="0.8" fill="#dfe8ff" opacity="0.58"><animate attributeName="opacity" values="0.2;0.9;0.2" dur="3.6s" repeatCount="indefinite"/></circle><circle cx="832" cy="23" r="0.8" fill="#dfe8ff" opacity="0.55"></circle><circle cx="538" cy="108" r="1.4" fill="#dfe8ff" opacity="0.85"><animate attributeName="opacity" values="0.2;0.9;0.2" dur="2.1s" repeatCount="indefinite"/></circle><circle cx="433" cy="177" r="1.4" fill="#dfe8ff" opacity="0.34"></circle><circle cx="946" cy="212" r="0.8" fill="#dfe8ff" opacity="0.55"><animate attributeName="opacity" values="0.2;0.9;0.2" dur="5.1s" repeatCount="indefinite"/></circle><circle cx="248" cy="195" r="1.1" fill="#dfe8ff" opacity="0.73"><animate attributeName="opacity" values="0.2;0.9;0.2" dur="5.8s" repeatCount="indefinite"/></circle><circle cx="635" cy="79" r="0.8" fill="#dfe8ff" opacity="0.54"></circle><circle cx="72" cy="250" r="1.4" fill="#dfe8ff" opacity="0.24"><animate attributeName="opacity" values="0.2;0.9;0.2" dur="4.4s" repeatCount="indefinite"/></circle><circle cx="532" cy="298" r="0.8" fill="#dfe8ff" opacity="0.48"></circle><circle cx="1131" cy="308" r="0.6" fill="#dfe8ff" opacity="0.85"></circle><circle cx="237" cy="393" r="1.4" fill="#dfe8ff" opacity="0.22"></circle><circle cx="485" cy="157" r="1.1" fill="#dfe8ff" opacity="0.51"><animate attributeName="opacity" values="0.2;0.9;0.2" dur="2.3s" repeatCount="indefinite"/></circle><circle cx="103" cy="176" r="0.6" fill="#dfe8ff" opacity="0.59"></circle><circle cx="487" cy="323" r="1.1" fill="#dfe8ff" opacity="0.78"></circle><circle cx="63" cy="199" r="1.1" fill="#dfe8ff" opacity="0.58"></circle><circle cx="414" cy="310" r="1.4" fill="#dfe8ff" opacity="0.22"></circle><circle cx="1039" cy="322" r="0.6" fill="#dfe8ff" opacity="0.46"></circle><circle cx="1028" cy="26" r="0.8" fill="#dfe8ff" opacity="0.72"></circle><circle cx="434" cy="114" r="0.6" fill="#dfe8ff" opacity="0.38"></circle><circle cx="405" cy="116" r="0.6" fill="#dfe8ff" opacity="0.71"></circle><circle cx="1031" cy="398" r="0.6" fill="#dfe8ff" opacity="0.22"><animate attributeName="opacity" values="0.2;0.9;0.2" dur="3.9s" repeatCount="indefinite"/></circle><circle cx="1225" cy="401" r="1.4" fill="#dfe8ff" opacity="0.75"></circle><circle cx="1043" cy="56" r="1.4" fill="#dfe8ff" opacity="0.33"></circle><circle cx="945" cy="346" r="0.8" fill="#dfe8ff" opacity="0.63"></circle><circle cx="409" cy="152" r="0.6" fill="#dfe8ff" opacity="0.56"></circle><circle cx="205" cy="171" r="0.6" fill="#dfe8ff" opacity="0.54"></circle><circle cx="206" cy="179" r="0.6" fill="#dfe8ff" opacity="0.89"><animate attributeName="opacity" values="0.2;0.9;0.2" dur="2.3s" repeatCount="indefinite"/></circle><circle cx="123" cy="209" r="1.4" fill="#dfe8ff" opacity="0.32"><animate attributeName="opacity" values="0.2;0.9;0.2" dur="3.8s" repeatCount="indefinite"/></circle><circle cx="1141" cy="99" r="0.6" fill="#dfe8ff" opacity="0.75"><animate attributeName="opacity" values="0.2;0.9;0.2" dur="3.1s" repeatCount="indefinite"/></circle><circle cx="343" cy="107" r="1.1" fill="#dfe8ff" opacity="0.34"><animate attributeName="opacity" values="0.2;0.9;0.2" dur="3.0s" repeatCount="indefinite"/></circle><circle cx="196" cy="371" r="0.8" fill="#dfe8ff" opacity="0.43"></circle><circle cx="1270" cy="213" r="0.8" fill="#dfe8ff" opacity="0.65"><animate attributeName="opacity" values="0.2;0.9;0.2" dur="3.9s" repeatCount="indefinite"/></circle><circle cx="47" cy="2" r="0.8" fill="#dfe8ff" opacity="0.79"></circle><circle cx="52" cy="123" r="0.6" fill="#dfe8ff" opacity="0.24"></circle><circle cx="1060" cy="82" r="0.6" fill="#dfe8ff" opacity="0.46"></circle><circle cx="575" cy="109" r="0.6" fill="#dfe8ff" opacity="0.27"></circle><circle cx="794" cy="91" r="1.1" fill="#dfe8ff" opacity="0.44"><animate attributeName="opacity" values="0.2;0.9;0.2" dur="6.0s" repeatCount="indefinite"/></circle><circle cx="49" cy="308" r="0.8" fill="#dfe8ff" opacity="0.77"></circle><circle cx="524" cy="156" r="1.1" fill="#dfe8ff" opacity="0.25"><animate attributeName="opacity" values="0.2;0.9;0.2" dur="4.0s" repeatCount="indefinite"/></circle><circle cx="619" cy="171" r="1.4" fill="#dfe8ff" opacity="0.66"><animate attributeName="opacity" values="0.2;0.9;0.2" dur="4.1s" repeatCount="indefinite"/></circle><circle cx="836" cy="167" r="1.1" fill="#dfe8ff" opacity="0.49"><animate attributeName="opacity" values="0.2;0.9;0.2" dur="3.2s" repeatCount="indefinite"/></circle><circle cx="1220" cy="131" r="1.1" fill="#dfe8ff" opacity="0.49"><animate attributeName="opacity" values="0.2;0.9;0.2" dur="5.1s" repeatCount="indefinite"/></circle><circle cx="1027" cy="271" r="1.4" fill="#dfe8ff" opacity="0.71"><animate attributeName="opacity" values="0.2;0.9;0.2" dur="2.0s" repeatCount="indefinite"/></circle><circle cx="1154" cy="178" r="0.6" fill="#dfe8ff" opacity="0.48"></circle><circle cx="590" cy="68" r="0.6" fill="#dfe8ff" opacity="0.24"><animate attributeName="opacity" values="0.2;0.9;0.2" dur="5.2s" repeatCount="indefinite"/></circle><circle cx="508" cy="241" r="1.1" fill="#dfe8ff" opacity="0.72"><animate attributeName="opacity" values="0.2;0.9;0.2" dur="3.4s" repeatCount="indefinite"/></circle><circle cx="207" cy="72" r="0.6" fill="#dfe8ff" opacity="0.28"></circle><circle cx="1030" cy="406" r="0.8" fill="#dfe8ff" opacity="0.41"></circle><circle cx="56" cy="383" r="1.1" fill="#dfe8ff" opacity="0.24"></circle>
<path d="M640,178 Q375.0,168 190,300" fill="none" stroke="#45e0a0" stroke-opacity=".35" stroke-dasharray="4 6"/>
<path d="M640,178 Q905.0,168 1090,300" fill="none" stroke="#45e0a0" stroke-opacity=".35" stroke-dasharray="4 6"/>
<line x1="190" y1="300" x2="1090" y2="300" stroke="#ff8a4c" stroke-opacity=".55" stroke-width="2" stroke-dasharray="8 7"><animate attributeName="stroke-dashoffset" from="0" to="-60" dur="2s" repeatCount="indefinite"/></line>
<circle r="3.2" fill="#5ef2e0" filter="url(#glow)"><animateMotion dur="3.2s" begin="0.0s" repeatCount="indefinite" path="M640,178 Q375.0,168 190,300"/></circle><circle r="3.2" fill="#5ef2e0" filter="url(#glow)"><animateMotion dur="3.2s" begin="0.0s" repeatCount="indefinite" path="M640,178 Q905.0,168 1090,300"/></circle><circle r="3.2" fill="#5ef2e0" filter="url(#glow)"><animateMotion dur="3.2s" begin="0.4s" repeatCount="indefinite" path="M640,178 Q375.0,168 190,300"/></circle><circle r="3.2" fill="#5ef2e0" filter="url(#glow)"><animateMotion dur="3.2s" begin="0.4s" repeatCount="indefinite" path="M640,178 Q905.0,168 1090,300"/></circle><circle r="3.2" fill="#5ef2e0" filter="url(#glow)"><animateMotion dur="3.2s" begin="0.8s" repeatCount="indefinite" path="M640,178 Q375.0,168 190,300"/></circle><circle r="3.2" fill="#5ef2e0" filter="url(#glow)"><animateMotion dur="3.2s" begin="0.8s" repeatCount="indefinite" path="M640,178 Q905.0,168 1090,300"/></circle><circle r="3.2" fill="#5ef2e0" filter="url(#glow)"><animateMotion dur="3.2s" begin="1.2s" repeatCount="indefinite" path="M640,178 Q375.0,168 190,300"/></circle><circle r="3.2" fill="#5ef2e0" filter="url(#glow)"><animateMotion dur="3.2s" begin="1.2s" repeatCount="indefinite" path="M640,178 Q905.0,168 1090,300"/></circle><circle r="3.2" fill="#5ef2e0" filter="url(#glow)"><animateMotion dur="3.2s" begin="1.6s" repeatCount="indefinite" path="M640,178 Q375.0,168 190,300"/></circle><circle r="3.2" fill="#5ef2e0" filter="url(#glow)"><animateMotion dur="3.2s" begin="1.6s" repeatCount="indefinite" path="M640,178 Q905.0,168 1090,300"/></circle><circle r="3.2" fill="#5ef2e0" filter="url(#glow)"><animateMotion dur="3.2s" begin="2.0s" repeatCount="indefinite" path="M640,178 Q375.0,168 190,300"/></circle><circle r="3.2" fill="#5ef2e0" filter="url(#glow)"><animateMotion dur="3.2s" begin="2.0s" repeatCount="indefinite" path="M640,178 Q905.0,168 1090,300"/></circle><circle r="3.2" fill="#5ef2e0" filter="url(#glow)"><animateMotion dur="3.2s" begin="2.4s" repeatCount="indefinite" path="M640,178 Q375.0,168 190,300"/></circle><circle r="3.2" fill="#5ef2e0" filter="url(#glow)"><animateMotion dur="3.2s" begin="2.4s" repeatCount="indefinite" path="M640,178 Q905.0,168 1090,300"/></circle><circle r="3.2" fill="#5ef2e0" filter="url(#glow)"><animateMotion dur="3.2s" begin="2.8s" repeatCount="indefinite" path="M640,178 Q375.0,168 190,300"/></circle><circle r="3.2" fill="#5ef2e0" filter="url(#glow)"><animateMotion dur="3.2s" begin="2.8s" repeatCount="indefinite" path="M640,178 Q905.0,168 1090,300"/></circle>
<circle r="7" fill="#ffb070" filter="url(#glow)"><animateMotion dur="7s" repeatCount="indefinite" path="M190,300 L1090,300"/></circle>
<circle cx="190" cy="300" r="46" fill="url(#earth)" filter="url(#glow)"/>
<circle cx="1090" cy="300" r="34" fill="url(#mars)" filter="url(#glow)"/>
<rect x="626" y="164" width="28" height="28" rx="7" fill="#45e0a0" filter="url(#glow)"><animateTransform attributeName="transform" type="rotate" from="0 640 178" to="360 640 178" dur="24s" repeatCount="indefinite"/></rect>
<text x="190" y="374" text-anchor="middle" font-family="Inter,Segoe UI,Helvetica,Arial,sans-serif" font-size="16" fill="#93a1b8">Earth</text>
<text x="1090" y="362" text-anchor="middle" font-family="Inter,Segoe UI,Helvetica,Arial,sans-serif" font-size="16" fill="#93a1b8">Mars</text>
<text x="640" y="152" text-anchor="middle" font-family="Inter,Segoe UI,Helvetica,Arial,sans-serif" font-size="14" fill="#45e0a0">relay: entangled-pair source + memory</text>
<text x="640.0" y="344" text-anchor="middle" font-family="JetBrains Mono,Menlo,monospace" font-size="15" fill="#ff8a4c">two classical bits · 3.1–22.3 min one way</text>
<text x="640.0" y="70" text-anchor="middle" font-family="Inter,Segoe UI,Helvetica,Arial,sans-serif" font-weight="800" font-size="52" fill="url(#title)">Quantum Link Research</text>
<text x="640.0" y="104" text-anchor="middle" font-family="Inter,Segoe UI,Helvetica,Arial,sans-serif" font-size="19" fill="#c9d4e6">from a diamond on a bench to a message to Mars — tested physics, simulations, and experiments</text>
<text x="640.0" y="396" text-anchor="middle" font-family="JetBrains Mono,Menlo,monospace" font-size="14" fill="#5b6780">F = (2f+1)/3  ·  f(t) = 1/4 + (f0 − 1/4)e^(−t/T)  ·  K ≤ −log2(1−η)  ·  τ = d/c  ·  3 of 6 memories survive the 44.6-min round trip</text>
</svg>